
<!DOCTYPE svg PUBLIC "-//W3C//DTD SVG 20010904//EN"
 "http://www.w3.org/TR/2001/REC-SVG-20010904/DTD/svg10.dtd">
<svg version="1.0" xmlns="http://www.w3.org/2000/svg"
 width="330pt" height="330pt" viewBox="85 85 330 330"
 preserveAspectRatio="xMidYMid meet">


  <defs>
    <!-- Gradiente viola -> rosa -> blu -->
    <linearGradient id="grad" x1="0%" y1="0%" x2="100%" y2="100%">
      <stop offset="0%" style="stop-color:#d946ef; stop-opacity:1" />
      <stop offset="50%" style="stop-color:#ec4899; stop-opacity:1" />
      <stop offset="100%" style="stop-color:#3b82f6; stop-opacity:1" />
    </linearGradient>
  </defs>

  <g transform="translate(0,500) scale(0.1,-0.1)" fill="url(#grad)" stroke="none">
    <path d="M2533 4126 c-109 -27 -212 -111 -259 -211 -18 -40 -54 -214 -54 -265
    0 -5 -17 -10 -39 -10 -47 0 -817 -145 -881 -165 -97 -32 -208 -128 -260 -227
    -42 -77 -60 -147 -60 -227 0 -67 138 -816 166 -904 38 -116 161 -241 284 -288
    101 -38 165 -43 291 -20 62 11 115 19 117 17 2 -2 -1 -35 -6 -72 -33 -246 98
    -492 319 -602 79 -39 114 -47 559 -137 341 -68 495 -95 547 -95 131 0 292 67
    392 163 52 50 121 154 145 217 25 69 206 977 206 1034 -1 217 -140 438 -335
    532 -44 21 -82 39 -83 40 -3 2 58 482 92 733 3 18 1 56 -5 84 -23 124 -103
    231 -211 285 -59 29 -89 35 -439 82 -207 27 -389 50 -405 49 -16 0 -52 -6 -81
    -13z m472 -61 c187 -25 363 -52 391 -61 112 -35 210 -144 241 -267 l16 -68
    -50 -375 c-28 -206 -52 -377 -55 -379 -5 -5 -426 78 -488 96 -37 11 -39 13
    -34 48 2 20 7 44 10 54 3 10 0 24 -6 32 -10 12 -10 19 1 31 8 9 14 22 14 28 0
    6 4 29 8 51 4 22 9 61 12 87 2 26 7 59 11 73 4 17 2 25 -7 25 -11 1 -11 3 1
    13 8 7 15 23 16 37 0 14 3 43 7 65 4 22 9 62 12 89 3 27 10 55 16 62 6 8 -25
    1 -77 -16 -101 -35 -105 -35 -98 -15 18 45 -41 104 -89 89 -23 -7 -265 -226
    -281 -254 -5 -8 -10 -16 -11 -18 -2 -2 -32 19 -68 46 -65 50 -140 84 -210 97
    -44 8 -44 12 -22 140 30 171 115 272 270 321 63 20 108 17 470 -31z m-611
    -499 c149 -76 229 -186 266 -370 11 -54 20 -100 20 -102 0 -2 -38 -4 -85 -4
    -111 0 -173 -14 -271 -60 l-81 -39 -194 33 c-107 18 -201 30 -209 27 -10 -4
    -8 -7 10 -9 18 -3 242 -134 268 -157 2 -2 -15 -34 -37 -71 -23 -37 -41 -72
    -41 -78 0 -6 -7 -1 -15 11 -18 25 -106 83 -127 83 -18 0 -88 -102 -88 -127 0
    -18 104 -93 128 -93 7 0 28 25 48 55 37 55 48 67 38 41 -3 -8 -43 -200 -88
    -426 -48 -239 -88 -415 -96 -420 -7 -4 -59 -16 -115 -25 -85 -15 -115 -16
    -176 -7 -166 25 -313 139 -372 290 -29 73 -167 817 -167 899 0 127 56 252 154
    341 86 79 134 94 556 176 348 68 395 75 491 73 102 -2 109 -4 183 -41z m416
    -121 c0 -7 -150 -118 -154 -114 -2 2 -11 19 -20 37 -16 30 -16 32 2 32 10 0
    49 11 88 24 74 26 84 29 84 21z m-46 -319 c-48 -43 -63 -44 -64 -4 0 11 18 23
    53 36 28 11 54 18 56 16 2 -2 -18 -23 -45 -48z m345 -156 c242 -50 466 -100
    498 -111 210 -78 363 -298 363 -521 0 -72 -165 -909 -200 -1013 -72 -216 -295
    -375 -527 -375 -51 0 -199 26 -515 90 -244 49 -465 97 -493 106 -167 53 -306
    203 -361 389 -33 114 -25 187 76 680 83 407 95 458 132 534 66 137 190 242
    348 292 113 37 193 28 679 -71z"/>
    <path d="M1591 2993 c-25 -20 -31 -48 -78 -331 l-17 -103 25 -24 c19 -20 49
    -29 157 -48 72 -13 132 -21 132 -18 0 3 -44 33 -97 66 -54 33 -105 68 -115 78
    -34 32 -22 67 76 222 68 107 91 152 82 157 -7 4 -41 10 -77 14 -55 5 -68 3
    -88 -13z"/>
    <path d="M2980 2300 c-14 -4 -92 -51 -172 -105 -150 -99 -177 -129 -161 -173
    14 -36 204 -312 222 -322 11 -5 29 -10 40 -10 21 0 317 191 339 218 24 32 11
    66 -79 206 -125 192 -134 201 -189 186z"/>
  </g>
</svg>
